<?xml version="1.0" encoding="UTF-8"?>
<svg width="1862px" height="1461px" viewBox="0 0 1862 1461" version="1.1" xmlns="http://www.w3.org/2000/svg" xmlns:xlink="http://www.w3.org/1999/xlink">
    <title>Artboard</title>
    <defs>
        <rect id="path-1" x="0" y="0" width="359" height="341"></rect>
    </defs>
    <g id="Artboard" stroke="none" stroke-width="1" fill="none" fill-rule="evenodd">
        <path d="M668.036607,488.500524 C688.040554,488.532029 696.147035,489.986565 703.6356,493.825526 L703.6356,493.825526 L704.141267,494.088057 C711.083976,497.799084 716.200916,502.916024 719.687854,509.436032 L719.687854,509.436032 L720.174474,510.3644 C724.05609,517.936171 725.5,526.139667 725.5,546.634613 L725.5,546.634613 L725.5,1165.36539 C725.5,1185.86033 724.05609,1194.06383 720.174474,1201.6356 L720.174474,1201.6356 L719.911943,1202.14127 C716.200916,1209.08398 711.083976,1214.20092 704.563968,1217.68785 L704.563968,1217.68785 L703.6356,1218.17447 C696.063829,1222.05609 687.860333,1223.5 667.365387,1223.5 L667.365387,1223.5 L348.634613,1223.5 C328.139667,1223.5 319.936171,1222.05609 312.3644,1218.17447 L312.3644,1218.17447 L311.858733,1217.91194 C304.916024,1214.20092 299.799084,1209.08398 296.312146,1202.56397 L296.312146,1202.56397 L295.825528,1201.6356 C291.996999,1194.16737 290.543755,1186.08397 290.500821,1166.13072 L290.500821,1166.13072 L290.500524,545.963393 C290.532029,525.959446 291.986565,517.852965 295.825526,510.3644 L295.825526,510.3644 L296.088057,509.858733 C299.799084,502.916024 304.916024,497.799084 311.436032,494.312146 L311.436032,494.312146 L312.364396,493.825528 C319.832636,489.996997 327.916038,488.543753 347.869305,488.500821 L347.869305,488.500821 Z" id="Rectangle" stroke="#FFFFFF" stroke-width="35"></path>
        <g id="Oval" transform="translate(672.000000, 220.000000)">
            <mask id="mask-2" fill="white">
                <use xlink:href="#path-1"></use>
            </mask>
            <g id="Mask"></g>
            <circle stroke="#FFFFFF" stroke-width="35" mask="url(#mask-2)" cx="-0.5" cy="340.5" r="264"></circle>
        </g>
        <polygon id="Triangle" fill="#FFFFFF" transform="translate(938.500000, 612.000000) scale(1, -1) translate(-938.500000, -612.000000) " points="938.5 560 1028 664 849 664"></polygon>
        <path d="M421.048565,471 L593.951435,471 C605.095419,471 609.136497,472.16032 613.210571,474.339159 C617.284645,476.517997 620.482003,479.715355 622.660841,483.789429 C624.83968,487.863503 626,491.904581 626,503.048565 L626,523.951435 C626,535.095419 624.83968,539.136497 622.660841,543.210571 C620.482003,547.284645 617.284645,550.482003 613.210571,552.660841 C609.136497,554.83968 605.095419,556 593.951435,556 L421.048565,556 C409.904581,556 405.863503,554.83968 401.789429,552.660841 C397.715355,550.482003 394.517997,547.284645 392.339159,543.210571 C390.16032,539.136497 389,535.095419 389,523.951435 L389,503.048565 C389,491.904581 390.16032,487.863503 392.339159,483.789429 C394.517997,479.715355 397.715355,476.517997 401.789429,474.339159 C405.863503,472.16032 409.904581,471 421.048565,471 Z" id="Rectangle" fill="#FFFFFF"></path>
        <path d="M1406.66247,628.274927 L1407.24002,628.574778 L1407.81695,628.880415 C1417.23145,633.915348 1424.66222,641.254873 1429.79508,650.584823 L1430.11959,651.183052 C1430.22243,651.375348 1430.32431,651.567613 1430.42522,651.759982 L1430.72507,652.337534 L1431.14666,653.171928 L1431.42102,653.73103 L1431.82245,654.57573 L1432.08333,655.143937 L1432.46447,656.005647 L1432.71178,656.58743 L1432.95363,657.175894 L1433.19001,657.771754 L1433.5343,658.680979 L1433.86622,659.610869 C1433.90241,659.715427 1433.93837,659.820413 1433.9741,659.925842 L1434.1857,660.563838 L1434.39176,661.213165 L1434.59226,661.874537 L1434.78719,662.54867 L1434.97653,663.236278 C1435.00762,663.352042 1435.03848,663.468398 1435.0691,663.585359 L1435.25003,664.294522 L1435.42534,665.018949 L1435.59501,665.759355 L1435.75903,666.516455 L1435.91738,667.290965 L1436.07006,668.083598 L1436.21703,668.895072 L1436.3583,669.7261 L1436.49385,670.577398 C1436.51597,670.72101 1436.53784,670.865496 1436.55947,671.010872 L1436.68641,671.893916 L1436.80759,672.799018 C1436.8273,672.951747 1436.84678,673.105424 1436.86601,673.260065 L1436.97853,674.199595 L1437.08525,675.162971 L1437.18616,676.150908 L1437.28125,677.164121 L1437.3705,678.203326 L1437.4539,679.269238 L1437.53144,680.362571 L1437.6031,681.484041 L1437.69953,683.220568 L1437.75643,684.41551 L1437.8074,685.641092 L1437.85242,686.898029 L1437.89149,688.187037 L1437.92459,689.50883 L1437.963,691.554558 L1437.98111,692.961444 L1437.99319,694.40362 L1438,696.634613 L1438,1316.1182 L1437.99319,1317.59638 L1437.98111,1319.03856 L1437.963,1320.44544 L1437.92459,1322.49117 L1437.89149,1323.81296 L1437.85242,1325.10197 L1437.8074,1326.35891 L1437.75643,1327.58449 L1437.69953,1328.77943 L1437.63672,1329.94445 L1437.568,1331.08026 L1437.4934,1332.18757 L1437.41293,1333.2671 L1437.3266,1334.31957 L1437.23443,1335.34569 L1437.13643,1336.34618 L1437.03261,1337.32174 L1436.92299,1338.27311 C1436.90424,1338.42969 1436.88525,1338.58529 1436.86601,1338.73994 L1436.74772,1339.65633 L1436.62366,1340.55032 C1436.60251,1340.69749 1436.58111,1340.84375 1436.55947,1340.98913 L1436.42679,1341.85083 L1436.28838,1342.6919 L1436.14426,1343.51306 L1435.99443,1344.31503 C1435.96899,1344.44713 1435.9433,1344.57846 1435.91738,1344.70904 L1435.75903,1345.48354 L1435.59501,1346.24064 L1435.42534,1346.98105 L1435.25003,1347.70548 L1435.0691,1348.41464 L1434.88256,1349.10926 L1434.69043,1349.79004 L1434.49271,1350.4577 L1434.28943,1351.11296 L1434.08059,1351.75653 C1434.01006,1351.96919 1433.9386,1352.18001 1433.86622,1352.38913 L1433.64632,1353.01147 C1433.60921,1353.11438 1433.57187,1353.21689 1433.5343,1353.31902 L1433.30615,1353.92732 L1433.0725,1354.52715 L1432.83339,1355.11922 L1432.58881,1355.70425 L1432.33878,1356.28296 L1432.08333,1356.85606 L1431.82245,1357.42427 L1431.55618,1357.9883 L1431.14666,1358.82807 L1430.72507,1359.66247 L1430.42522,1360.24002 L1430.11959,1360.81695 C1425.08465,1370.23145 1417.74513,1377.66222 1408.41518,1382.79508 L1407.81695,1383.11959 C1407.62465,1383.22243 1407.43239,1383.32431 1407.24002,1383.42522 L1406.66247,1383.72507 L1405.82807,1384.14666 L1405.26897,1384.42102 L1404.42427,1384.82245 L1403.85606,1385.08333 L1402.99435,1385.46447 L1402.41257,1385.71178 L1401.82411,1385.95363 L1401.22825,1386.19001 L1400.31902,1386.5343 L1399.38913,1386.86622 C1399.28457,1386.90241 1399.17959,1386.93837 1399.07416,1386.9741 L1398.43616,1387.1857 L1397.78684,1387.39176 L1397.12546,1387.59226 L1396.45133,1387.78719 L1395.76372,1387.97653 C1395.64796,1388.00762 1395.5316,1388.03848 1395.41464,1388.0691 L1394.70548,1388.25003 L1393.98105,1388.42534 L1393.24064,1388.59501 L1392.48354,1388.75903 L1391.70904,1388.91738 L1390.9164,1389.07006 L1390.10493,1389.21703 L1389.2739,1389.3583 L1388.4226,1389.49385 C1388.27899,1389.51597 1388.1345,1389.53784 1387.98913,1389.55947 L1387.10608,1389.68641 L1386.20098,1389.80759 C1386.04825,1389.8273 1385.89458,1389.84678 1385.73994,1389.86601 L1384.80041,1389.97853 L1383.83703,1390.08525 L1382.84909,1390.18616 L1381.83588,1390.28125 L1380.79667,1390.3705 L1379.73076,1390.4539 L1378.63743,1390.53144 L1377.51596,1390.6031 L1375.77943,1390.69953 L1374.58449,1390.75643 L1373.35891,1390.8074 L1372.10197,1390.85242 L1370.81296,1390.89149 L1369.49117,1390.92459 L1367.44544,1390.963 L1366.03856,1390.98111 L1364.59638,1391 L1362.36539,1391 L1042.8818,1391 L1041.40362,1391 L1039.96144,1390.98111 L1038.55456,1390.963 L1036.50883,1390.92459 L1035.18704,1390.89149 L1033.89803,1390.85242 L1032.64109,1390.8074 L1031.41551,1390.75643 L1030.22057,1390.69953 L1029.05555,1390.63672 L1027.91974,1390.568 L1026.81243,1390.4934 L1025.7329,1390.41293 L1024.68043,1390.3266 L1023.65431,1390.23443 L1022.65382,1390.13643 L1021.67826,1390.03261 L1020.72689,1389.92299 C1020.57031,1389.90424 1020.41471,1389.88525 1020.26006,1389.86601 L1019.34367,1389.74772 L1018.44968,1389.62366 C1018.30251,1389.60251 1018.15625,1389.58111 1018.01087,1389.55947 L1017.14917,1389.42679 L1016.3081,1389.28838 L1015.48694,1389.14426 L1014.68497,1388.99443 C1014.55287,1388.96899 1014.42154,1388.9433 1014.29096,1388.91738 L1013.51646,1388.75903 L1012.75936,1388.59501 L1012.01895,1388.42534 L1011.29452,1388.25003 L1010.58536,1388.0691 L1009.89074,1387.88256 L1009.20996,1387.69043 L1008.5423,1387.49271 L1007.88704,1387.28943 L1007.24347,1387.08059 C1007.03081,1387.01006 1006.81999,1386.9386 1006.61087,1386.86622 L1005.98853,1386.64632 C1005.88562,1386.60921 1005.78311,1386.57187 1005.68098,1386.5343 L1005.07268,1386.30615 L1004.47285,1386.0725 L1003.88078,1385.83339 L1003.29575,1385.58881 L1002.71704,1385.33878 L1002.14394,1385.08333 L1001.57573,1384.82245 L1001.0117,1384.55618 L1000.17193,1384.14666 L999.337534,1383.72507 L998.759982,1383.42522 L998.183052,1383.11959 C988.768546,1378.08465 981.337779,1370.74513 976.20492,1361.41518 L975.880415,1360.81695 C975.777574,1360.62465 975.675694,1360.43239 975.574778,1360.24002 L975.274927,1359.66247 L974.857665,1358.83679 L974.45223,1358.00587 L974.188533,1357.44785 L973.802912,1356.60299 L973.552467,1356.03352 L973.307347,1355.45825 L973.067565,1354.8765 L972.717933,1353.99018 L972.491559,1353.38917 L972.270572,1352.77925 L972.054985,1352.15972 L971.844813,1351.52989 L971.640069,1350.88907 L971.440767,1350.23656 L971.24692,1349.57167 L971.058544,1348.89371 L970.87565,1348.20198 L970.698254,1347.49579 C970.669147,1347.37685 970.640269,1347.25728 970.611621,1347.13706 L970.442497,1346.40789 L970.278903,1345.66253 L970.120855,1344.90028 L969.968366,1344.12045 L969.82145,1343.32235 L969.68012,1342.50529 L969.544391,1341.66858 L969.414276,1340.81151 L969.289789,1339.9334 L969.170944,1339.03356 L969.057754,1338.11128 L968.950233,1337.16589 L968.848396,1336.19668 L968.752255,1335.20296 L968.661824,1334.18404 L968.536916,1332.60689 L968.460823,1331.52193 L968.390488,1330.40935 L968.325925,1329.26845 L968.239936,1327.50248 L968.189865,1326.28775 L968.145615,1325.04227 L968.107199,1323.76535 L968.074632,1322.4563 L968.047927,1321.11443 L968.018891,1319.03856 L968.006901,1317.61159 L968.000757,1316.14937 L968.000757,695.881799 L968.006806,694.40362 L968.018891,692.961444 L968.036996,691.554558 L968.075414,689.50883 L968.108511,688.187037 L968.147579,686.898029 L968.192605,685.641092 L968.243574,684.41551 L968.300472,683.220568 L968.363284,682.055551 L968.431997,680.919744 L968.506596,679.812432 L968.587067,678.732899 L968.673396,677.68043 L968.765569,676.654311 L968.863571,675.653825 L968.967388,674.678257 L969.077007,673.726894 C969.095759,673.57031 969.114753,673.414706 969.133987,673.260065 L969.25228,672.343665 L969.376339,671.449682 C969.397495,671.302513 969.41889,671.156248 969.440525,671.010872 L969.573206,670.149171 L969.711616,669.308097 L969.855742,668.486935 L970.005569,667.684971 C970.031014,667.552871 970.056697,667.42154 970.082616,667.290965 L970.240969,666.516455 L970.404988,665.759355 L970.574659,665.018949 L970.749967,664.294522 L970.930898,663.585359 L971.117439,662.890745 L971.309575,662.209963 L971.507291,661.5423 L971.710574,660.88704 L971.919409,660.243468 C971.989945,660.030813 972.061403,659.819986 972.133782,659.610869 L972.353679,658.988527 C972.390789,658.885618 972.428127,658.783107 972.465695,658.680979 L972.693851,658.072682 L972.927496,657.472855 L973.166614,656.880782 L973.411193,656.295748 L973.661217,655.717038 L973.916673,655.143937 L974.177546,654.57573 L974.443822,654.011701 L974.853336,653.171928 L975.274927,652.337534 L975.574778,651.759982 L975.880415,651.183052 C980.915348,641.768546 988.254873,634.337779 997.584823,629.20492 L998.183052,628.880415 C998.375348,628.777574 998.567613,628.675694 998.759982,628.574778 L999.337534,628.274927 L1000.16321,627.857665 L1000.99413,627.45223 L1001.55215,627.188533 L1002.39701,626.802912 L1002.96648,626.552467 L1003.54175,626.307347 L1004.1235,626.067565 L1005.00982,625.717933 L1005.61083,625.491559 L1006.22075,625.270572 L1006.84028,625.054985 L1007.47011,624.844813 L1008.11093,624.640069 L1008.76344,624.440767 L1009.42833,624.24692 L1010.10629,624.058544 L1010.79802,623.87565 L1011.50421,623.698254 C1011.62315,623.669147 1011.74272,623.640269 1011.86294,623.611621 L1012.59211,623.442497 L1013.33747,623.278903 L1014.09972,623.120855 L1014.87955,622.968366 L1015.67765,622.82145 L1016.49471,622.68012 L1017.33142,622.544391 L1018.18849,622.414276 L1019.0666,622.289789 L1019.96644,622.170944 L1020.88872,622.057754 L1021.83411,621.950233 L1022.80332,621.848396 L1023.79704,621.752255 L1024.81596,621.661824 L1026.39311,621.536916 L1027.47807,621.460823 L1028.59065,621.390488 L1029.73155,621.325925 L1031.49752,621.239936 L1032.71225,621.189865 L1033.95773,621.145615 L1035.23465,621.107199 L1036.5437,621.074632 L1037.88557,621.047927 L1039.96144,621.018891 L1041.38841,621.000757 L1042.85063,621.000757 L1363.1182,621.000757 L1364.59638,621.000757 L1366.03856,621.018891 L1367.44544,621.036996 L1369.49117,621.075414 L1370.81296,621.108511 L1372.10197,621.147579 L1373.35891,621.192605 L1374.58449,621.243574 L1375.77943,621.300472 L1376.94445,621.363284 L1378.08026,621.431997 L1379.18757,621.506596 L1380.2671,621.587067 L1381.31957,621.673396 L1382.34569,621.765569 L1383.34618,621.863571 L1384.32174,621.967388 L1385.27311,622.077007 C1385.42969,622.095759 1385.58529,622.114753 1385.73994,622.133987 L1386.65633,622.25228 L1387.55032,622.376339 C1387.69749,622.397495 1387.84375,622.41889 1387.98913,622.440525 L1388.85083,622.573206 L1389.6919,622.711616 L1390.51306,622.855742 L1391.31503,623.005569 C1391.44713,623.031014 1391.57846,623.056697 1391.70904,623.082616 L1392.48354,623.240969 L1393.24064,623.404988 L1393.98105,623.574659 L1394.70548,623.749967 L1395.41464,623.930898 L1396.10926,624.117439 L1396.79004,624.309575 L1397.4577,624.507291 L1398.11296,624.710574 L1398.75653,624.919409 C1398.96919,624.989945 1399.18001,625.061403 1399.38913,625.133782 L1400.01147,625.353679 C1400.11438,625.390789 1400.21689,625.428127 1400.31902,625.465695 L1400.92732,625.693851 L1401.52715,625.927496 L1402.11922,626.166614 L1402.70425,626.411193 L1403.28296,626.661217 L1403.85606,626.916673 L1404.42427,627.177546 L1404.9883,627.443822 L1405.82807,627.853336 L1406.66247,628.274927 Z M1015.48356,659.329355 L1014.85627,659.654841 L1014.68901,659.743877 C1011.17359,661.623943 1008.62394,664.173594 1006.74388,667.689012 L1006.56888,668.019311 L1006.32925,668.483767 L1006.09872,668.952927 L1005.87725,669.430889 L1005.7346,669.755667 L1005.5959,670.086226 L1005.39524,670.594542 L1005.26634,670.942827 L1005.14132,671.299512 L1004.96098,671.851922 L1004.84553,672.232876 L1004.73385,672.624846 L1004.62593,673.02858 L1004.52174,673.444826 L1004.37239,674.094291 L1004.27741,674.545089 L1004.14175,675.249888 L1004.05582,675.739912 L1003.97346,676.246935 L1003.89464,676.771704 L1003.81936,677.314969 L1003.71297,678.166178 L1003.61436,679.063208 L1003.5529,679.687929 L1003.49483,680.334884 L1003.38876,681.698486 L1003.31792,682.785113 L1003.23491,684.323983 L1003.1648,685.97123 L1003.12055,687.281389 L1003.09497,688.191812 L1003.06242,689.614792 L1003.03677,691.108831 L1003.01794,692.676452 L1003.00583,694.32018 L1003,696.634567 L1003,1316.07559 L1003.01583,1318.89425 L1003.04093,1320.99454 L1003.07786,1322.96391 L1003.12684,1324.80838 L1003.17162,1326.11339 L1003.22341,1327.35407 L1003.26188,1328.1467 L1003.32555,1329.28581 L1003.39649,1330.36737 L1003.44787,1331.05769 L1003.50254,1331.72431 L1003.59079,1332.68146 L1003.65383,1333.29214 L1003.75477,1334.16889 L1003.86346,1335.00079 L1003.97998,1335.79039 L1004.10443,1336.54022 L1004.19185,1337.01927 L1004.28287,1337.48252 L1004.37752,1337.93074 L1004.47582,1338.36466 L1004.5778,1338.78506 L1004.73774,1339.39192 C1004.75598,1339.45785 1004.77437,1339.52329 1004.79293,1339.58826 L1004.96415,1340.16073 L1005.14394,1340.71037 L1005.26862,1341.06537 L1005.46291,1341.58261 L1005.59734,1341.91836 L1005.73573,1342.24773 L1005.95078,1342.73147 L1006.17488,1343.20508 L1006.408,1343.671 L1006.74388,1344.31099 C1008.62394,1347.82641 1011.17359,1350.37606 1014.68901,1352.25612 L1014.971,1352.406 L1015.48377,1352.67075 L1015.95293,1352.90128 L1016.43089,1353.12275 L1016.75567,1353.2654 L1017.08623,1353.4041 L1017.59454,1353.60476 L1017.94283,1353.73366 L1018.29951,1353.85868 L1018.85192,1354.03902 L1019.23288,1354.15447 L1019.62485,1354.26615 L1020.02858,1354.37407 L1020.44483,1354.47826 L1021.09429,1354.62761 L1021.54509,1354.72259 L1022.24989,1354.85825 L1022.73992,1354.94418 L1023.24694,1355.02654 L1023.77171,1355.10536 L1024.31497,1355.18064 L1025.16619,1355.28703 L1026.06322,1355.38564 L1026.68794,1355.4471 L1027.33489,1355.50517 L1028.6985,1355.61124 L1029.78513,1355.68208 L1031.324,1355.76509 L1032.97125,1355.8352 L1034.28141,1355.87945 L1035.19184,1355.90503 L1036.61482,1355.93758 L1038.10886,1355.96323 L1039.67649,1355.98206 L1041.32022,1356 L1043.63461,1356 L1363.54043,1356 L1366.32351,1355.98206 L1368.3972,1355.95544 L1369.86728,1355.9275 L1370.80816,1355.90503 L1372.16261,1355.86549 L1373.02875,1355.8352 L1374.676,1355.76509 L1375.83999,1355.70405 L1377.3015,1355.61124 L1378.66511,1355.50517 L1379.31206,1355.4471 L1380.24104,1355.35363 L1380.83381,1355.28703 L1381.68503,1355.18064 L1382.22829,1355.10536 L1382.75306,1355.02654 L1383.26008,1354.94418 L1383.75011,1354.85825 L1384.45491,1354.72259 L1384.90571,1354.62761 L1385.55517,1354.47826 L1385.97142,1354.37407 L1386.37515,1354.26615 L1386.76712,1354.15447 L1387.14808,1354.03902 L1387.70049,1353.85868 L1388.05717,1353.73366 L1388.40546,1353.60476 L1388.91377,1353.4041 L1389.24433,1353.2654 L1389.56911,1353.12275 L1390.04707,1352.90128 L1390.51623,1352.67075 L1391.14373,1352.34516 L1391.31099,1352.25612 C1394.82641,1350.37606 1397.37606,1347.82641 1399.25612,1344.31099 L1399.43112,1343.98069 L1399.67075,1343.51623 L1399.90128,1343.04707 L1400.12275,1342.56911 L1400.2654,1342.24433 L1400.4041,1341.91377 L1400.60476,1341.40546 L1400.73366,1341.05717 L1400.85868,1340.70049 L1401.03902,1340.14808 L1401.15447,1339.76712 L1401.26615,1339.37515 L1401.37407,1338.97142 L1401.47826,1338.55517 L1401.62761,1337.90571 L1401.72259,1337.45491 L1401.85825,1336.75011 L1401.94418,1336.26008 L1402.02654,1335.75306 L1402.10536,1335.22829 L1402.18064,1334.68503 L1402.28703,1333.83381 L1402.38564,1332.93678 L1402.4471,1332.31206 L1402.50517,1331.66511 L1402.61124,1330.3015 L1402.68208,1329.21487 L1402.76509,1327.676 L1402.8352,1326.02875 L1402.87945,1324.71859 L1402.90503,1323.80816 L1402.93758,1322.38518 L1402.96323,1320.89114 L1402.98206,1319.32351 L1402.99417,1317.67978 L1403,1315.36539 L1403,695.45957 L1402.98206,692.676489 L1402.95544,690.602798 L1402.9275,689.132722 L1402.90503,688.191838 L1402.86549,686.837389 L1402.8352,685.971252 L1402.76509,684.324 L1402.70405,683.160013 L1402.61124,681.698499 L1402.50517,680.334894 L1402.4471,679.687938 L1402.35363,678.758959 L1402.28703,678.166185 L1402.18064,677.314974 L1402.10536,676.771709 L1402.02654,676.246939 L1401.94418,675.739915 L1401.85825,675.249891 L1401.72259,674.545092 L1401.62761,674.094293 L1401.47826,673.444828 L1401.37407,673.028581 L1401.26615,672.624847 L1401.15447,672.232876 L1401.03902,671.851923 L1400.85868,671.299512 L1400.73366,670.942828 L1400.60476,670.594542 L1400.4041,670.086226 L1400.2654,669.755667 L1400.12275,669.430889 L1399.90128,668.952927 L1399.67075,668.483767 L1399.43112,668.019311 C1399.37482,667.911979 1399.31653,667.801953 1399.25612,667.689012 C1397.37606,664.173594 1394.82641,661.623943 1391.31099,659.743877 L1391.028,659.593 L1390.51623,659.329254 L1390.04707,659.09872 L1389.56911,658.87725 L1389.24433,658.734595 L1388.91377,658.595903 L1388.40546,658.39524 L1388.05717,658.266342 L1387.70049,658.141317 L1387.14808,657.960984 L1386.76713,657.845526 L1386.37516,657.73385 L1385.97142,657.625929 L1385.55518,657.521738 L1384.90571,657.372387 L1384.45491,657.277406 L1383.75011,657.141749 L1383.26009,657.055815 L1382.75307,656.973456 L1382.2283,656.894645 L1381.68504,656.819355 L1380.83383,656.712967 L1379.9368,656.614357 L1379.31208,656.552895 L1378.66513,656.494825 L1377.30153,656.388758 L1376.2149,656.317918 L1374.67603,656.234912 L1373.02879,656.1648 L1371.71863,656.120552 L1370.80821,656.094974 L1369.38524,656.062423 L1367.8912,656.036775 L1366.32358,656.01794 L1364.67986,656 L1362.36548,656 L1042.92441,656 L1040.10575,656.015833 L1038.00546,656.040932 L1036.03609,656.077859 L1034.19162,656.12684 L1032.88661,656.171624 L1031.64593,656.223412 L1030.8533,656.261877 L1029.71419,656.325554 L1028.63263,656.396492 L1027.94231,656.447865 L1027.27569,656.502537 L1026.31854,656.59079 L1025.70786,656.653832 L1024.83111,656.754773 L1023.99921,656.863456 L1023.20961,656.979976 L1022.45978,657.10443 L1021.98073,657.191853 L1021.51748,657.282874 L1021.06926,657.377519 L1020.63534,657.475819 L1020.21494,657.577801 L1019.60808,657.737741 C1019.54215,657.75598 1019.47671,657.774374 1019.41174,657.792926 L1018.83927,657.964148 L1018.28963,658.143942 L1017.93463,658.268616 L1017.41739,658.462913 L1017.08164,658.597344 L1016.75227,658.735727 L1016.26853,658.950775 L1015.79492,659.174877 L1015.48356,659.329355 Z" id="Rectangle" fill="#FFFFFF" fill-rule="nonzero" transform="translate(1203.000378, 1006.000378) rotate(90.000000) translate(-1203.000378, -1006.000378) "></path>
        <path d="M1459.04856,964 L1631.95144,964 C1643.09542,964 1647.1365,965.16032 1651.21057,967.339159 C1655.28465,969.517997 1658.482,972.715355 1660.66084,976.789429 C1662.83968,980.863503 1664,984.904581 1664,996.048565 L1664,1016.95144 C1664,1028.09542 1662.83968,1032.1365 1660.66084,1036.21057 C1658.482,1040.28465 1655.28465,1043.482 1651.21057,1045.66084 C1647.1365,1047.83968 1643.09542,1049 1631.95144,1049 L1459.04856,1049 C1447.90458,1049 1443.8635,1047.83968 1439.78943,1045.66084 C1435.71535,1043.482 1432.518,1040.28465 1430.33916,1036.21057 C1428.16032,1032.1365 1427,1028.09542 1427,1016.95144 L1427,996.048565 C1427,984.904581 1428.16032,980.863503 1430.33916,976.789429 C1432.518,972.715355 1435.71535,969.517997 1439.78943,967.339159 C1443.8635,965.16032 1447.90458,964 1459.04856,964 Z" id="Rectangle" fill="#FFFFFF" transform="translate(1545.500000, 1006.500000) rotate(90.000000) translate(-1545.500000, -1006.500000) "></path>
    </g>
</svg>